<svg width="159" height="21" viewBox="0 0 159 21" fill="none" xmlns="http://www.w3.org/2000/svg">
<path d="M0.534866 17.3269C0.397324 17.2143 0.255615 17.0226 0.255615 16.7725C0.255615 16.3849 0.589055 16.0515 0.976673 16.0515C1.17257 16.0515 1.33928 16.1348 1.44765 16.2182C3.38991 17.9687 5.33633 18.744 7.99965 18.744C10.913 18.744 12.9136 17.106 12.9136 14.8844V14.8303C12.9136 12.7755 11.83 11.5834 7.41614 10.6915C2.75221 9.74537 0.864137 8.16573 0.864137 5.22316V5.16898C0.864137 2.2806 3.50244 0.059082 7.11188 0.059082C9.72101 0.059082 11.5257 0.72596 13.3054 2.0597C13.443 2.17223 13.6097 2.36396 13.6097 2.64321C13.6097 3.03083 13.2763 3.36427 12.8886 3.36427C12.7219 3.36427 12.5552 3.31007 12.4177 3.19754C10.7255 1.89297 9.02913 1.36365 7.05769 1.36365C4.19849 1.36365 2.31041 3.00165 2.31041 5.02727V5.08146C2.31041 7.13625 3.3649 8.38663 7.97464 9.32859C12.4718 10.2455 14.3599 11.8544 14.3599 14.6885V14.7427C14.3599 17.8812 11.6674 20.0444 7.91629 20.0444C5.00707 20.0485 2.73137 19.1316 0.534866 17.3269Z" fill="black"/>
<path d="M19.0738 0.958838C19.0738 0.57122 19.4072 0.237793 19.7948 0.237793H19.9324C20.2366 0.237793 20.4617 0.404511 20.6534 0.654587L28.2349 11.8163L35.8164 0.654587C35.9831 0.404511 36.2332 0.237793 36.5374 0.237793H36.675C37.0626 0.237793 37.396 0.57122 37.396 0.958838V19.1477C37.396 19.5353 37.0626 19.8688 36.675 19.8688C36.2874 19.8688 35.9539 19.5353 35.9539 19.1477V2.87609L28.8184 13.2584C28.6517 13.5085 28.4558 13.621 28.2057 13.621C27.9556 13.621 27.7598 13.5085 27.593 13.2584L20.4575 2.87609V19.1769C20.4575 19.5645 20.1533 19.8729 19.7615 19.8729C19.3739 19.8729 19.0654 19.5687 19.0654 19.1769V0.958838H19.0738Z" fill="black"/>
<path d="M41.6223 18.8685L49.9248 0.875495C50.1207 0.458701 50.3958 0.179443 50.896 0.179443H50.9501C51.4503 0.179443 51.7254 0.458701 51.9213 0.875495L60.1946 18.8143C60.278 18.981 60.3072 19.1186 60.3072 19.2603C60.3072 19.6229 60.0029 19.9271 59.6111 19.9271C59.2777 19.9271 59.0276 19.6771 58.8901 19.3728L56.6144 14.3754L50.896 1.82578L42.8727 19.402C42.7351 19.7354 42.5101 19.9313 42.1766 19.9313C41.814 19.9313 41.5098 19.6521 41.5098 19.3186C41.5098 19.2019 41.5389 19.0352 41.6223 18.8685Z" fill="black"/>
<path d="M64.429 1.0006C64.429 0.612981 64.7624 0.279541 65.15 0.279541H72.5898C74.978 0.279541 76.8953 1.02977 78.0581 2.1968C78.9751 3.11374 79.5294 4.41831 79.5294 5.80623V5.86042C79.5294 9.10724 77.112 10.9703 73.836 11.4121L79.3627 18.5768C79.5002 18.7435 79.5836 18.9102 79.5836 19.0769C79.5836 19.4646 79.221 19.8272 78.8334 19.8272C78.5541 19.8272 78.3624 19.6605 78.1957 19.4396L72.2272 11.6664H65.8669V19.1061C65.8669 19.4937 65.5335 19.8272 65.1459 19.8272C64.7582 19.8272 64.4248 19.4937 64.4248 19.1061V1.0006H64.429ZM72.4273 10.3576C75.6741 10.3576 78.0915 8.71962 78.0915 5.9146V5.86042C78.0915 3.25129 76.0367 1.61329 72.5106 1.61329H65.8753V10.3618H72.4273V10.3576Z" fill="black"/>
<path d="M89.0285 1.61329H82.8099C82.4473 1.61329 82.1431 1.30902 82.1431 0.946414C82.1431 0.583803 82.4473 0.279541 82.8099 0.279541H96.6933C97.056 0.279541 97.3602 0.583803 97.3602 0.946414C97.3602 1.30902 97.056 1.61329 96.6933 1.61329H90.4748V19.1061C90.4748 19.4937 90.1413 19.8272 89.7537 19.8272C89.3661 19.8272 89.0327 19.4937 89.0327 19.1061V1.61329H89.0285Z" fill="black"/>
<path d="M122.176 10.1073V10.0531C122.176 4.80563 125.982 0 131.783 0C134.697 0 136.614 0.804404 138.419 2.16732C138.585 2.30486 138.698 2.50077 138.698 2.75084C138.698 3.13846 138.365 3.47189 137.977 3.47189C137.864 3.47189 137.698 3.4177 137.531 3.27599C136.03 2.10897 134.392 1.30457 131.7 1.30457C126.978 1.30457 123.677 5.30161 123.677 9.99471V10.0531C123.677 15.0796 126.815 18.8266 132.008 18.8266C134.48 18.8266 136.785 17.8013 138.202 16.6051V11.0242H132.15C131.788 11.0242 131.483 10.7199 131.483 10.3573C131.483 9.99472 131.788 9.69046 132.15 9.69046H138.869C139.256 9.69046 139.59 10.0239 139.59 10.4115V16.7718C139.59 17.051 139.394 17.3553 139.09 17.6054C137.256 19.0225 134.843 20.1061 131.954 20.1061C125.815 20.1061 122.176 15.5798 122.176 10.1073Z" fill="#D5A368"/>
<path d="M144.925 19.0475V1.05455C144.925 0.666936 145.258 0.333496 145.646 0.333496H158.196C158.558 0.333496 158.862 0.637758 158.862 1.00037C158.862 1.36298 158.558 1.66724 158.196 1.66724H146.367V9.30291H156.945C157.308 9.30291 157.612 9.60716 157.612 9.96977C157.612 10.3324 157.308 10.6366 156.945 10.6366H146.367V18.439H158.333C158.696 18.439 159 18.7433 159 19.1059C159 19.4685 158.696 19.7728 158.333 19.7728H145.642C145.258 19.7728 144.925 19.4393 144.925 19.0475Z" fill="#D5A368"/>
<path d="M101.607 18.8685L109.91 0.875495C110.106 0.458701 110.381 0.179443 110.881 0.179443H110.935C111.435 0.179443 111.71 0.458701 111.906 0.875495L120.18 18.8143C120.263 18.981 120.292 19.1186 120.292 19.2603C120.292 19.6229 119.988 19.9271 119.596 19.9271C119.263 19.9271 119.013 19.6771 118.875 19.3728L116.599 14.3754L110.881 1.82578L102.858 19.402C102.72 19.7354 102.495 19.9313 102.162 19.9313C101.799 19.9313 101.495 19.6521 101.495 19.3186C101.499 19.2019 101.524 19.0352 101.607 18.8685Z" fill="#D5A368"/>
</svg>
